<?xml version="1.0" encoding="UTF-8" standalone="no"?><!DOCTYPE svg PUBLIC "-//W3C//DTD SVG 1.1//EN" "http://www.w3.org/Graphics/SVG/1.1/DTD/svg11.dtd"><svg width="100%" height="100%" viewBox="0 0 1837 1837" version="1.1" xmlns="http://www.w3.org/2000/svg" xmlns:xlink="http://www.w3.org/1999/xlink" xml:space="preserve" xmlns:serif="http://www.serif.com/" style="fill-rule:evenodd;clip-rule:evenodd;stroke-linecap:round;stroke-linejoin:round;stroke-miterlimit:1.5;"><rect id="Artboard2" x="0" y="0" width="1837" height="1837" style="fill:none;"/><path d="M1786.123,498.711l0,862.161c0,237.92 -193.161,431.08 -431.08,431.08l-862.161,0c-237.92,0 -431.08,-193.161 -431.08,-431.08l0,-862.161c0,-237.92 193.161,-431.08 431.08,-431.08l862.161,0c237.92,0 431.08,193.161 431.08,431.08Z" style="fill:#071184;"/><circle cx="923.962" cy="929.791" r="500.961" style="fill:#d7d3d1;"/><circle cx="735.194" cy="1091.333" r="159.727" style="fill:#1a07f2;stroke:#292524;stroke-width:1px;"/><path d="M244.211,1194.338c-20.787,20.533 -54.333,20.327 -74.867,-0.459c-20.533,-20.787 -20.327,-54.333 0.459,-74.867l446.508,-441.063c15.499,-15.31 38.796,-19.562 58.705,-10.714l244.596,108.71l536.97,-533.506c20.727,-20.593 54.274,-20.485 74.868,0.242c20.593,20.727 20.485,54.274 -0.242,74.868l-562.673,559.043c-15.495,15.395 -38.854,19.693 -58.814,10.822l-244.699,-108.755l-420.811,415.679Z" style="fill:#ff6900;"/></svg>